#!OML:ASF F:\VICON\USERDATA\INSTALL\rory3\rory3.ASF
:FULLY-SPECIFIED
:DEGREES
44
root 0.5099168246921968 17.73940226756496 -15.163241986629052 7.899332111860965 -1.3201289447474016 -1.80444020501196
lfemur -18.21192317922023 9.097898524030667 -18.63627227682378
ltibia 20.85059112300574
lfoot -11.053871023765124 1.119531878407845
ltoes -8.76339307150582
rfemur -20.106169592227005 -3.2075432312540766 20.476574889282293
rtibia 25.336445025221906
rfoot -14.766882235881974 -1.5867980047930872
rtoes 6.604672251702908
lowerback 6.127846671617864 -0.08050819800550119 0.7789233885954594
upperback 4.871847690775622 -0.15289863889852198 1.6608082870823906
thorax 2.713727269640751 -0.09851838665242713 1.4249071645686002
lowerneck -15.950198660328684 0.7671873174299354 -1.9308513763356854
upperneck 21.88419294661845 1.5989816902824283 -0.5516310320151634
head 9.541891755344112 0.607995190895421 0.42597725645279805
lclavicle 5.763344325632838e-16 -3.0996659289894477e-16
lhumerus -20.00627186215462 -6.996757072718059 91.62784564735239
lradius 20.747088222020665
lwrist 8.277253736337402
lhand -26.02461244835637 -5.441988015143443
lfingers 7.125019999999998
lthumb 0.38673666272712315 24.599440892141626
rclavicle 5.757038091351917e-16 -3.1147904857792755e-16
rhumerus -21.621947227096438 -17.25314380649332 -82.71128782815349
rradius 22.062149066844746
rwrist 34.50510472076449
rhand -18.827104626602573 -25.67256891092939
rfingers 7.125019999999998
rthumb 7.304557201422003 -55.632552159333585
45
root 0.5088735290623772 17.696086689593074 -15.394686659661865 8.869752813530026 -1.4749949371963764 -1.8383782801664543
lfemur -19.830715537416463 9.237566347180717 -18.6835206487798
ltibia 21.70179878114783
lfoot -11.174290319237576 1.155369581275981
ltoes -9.177989049035371
rfemur -22.403944390490555 -3.113570244886793 20.56427694649402
rtibia 26.662617564706228
rfoot -15.098409240802203 -1.4760530532601361
rtoes 6.3866565888538
lowerback 6.940649965356701 -0.04534433262448495 0.7592506937433268
upperback 4.939856064895853 -0.09734435108527152 1.6417112345289298
thorax 2.535875485154688 -0.07196461546044089 1.4237828371211747
lowerneck -16.00502510913377 0.8001804227473382 -1.9013089874233968
upperneck 21.144962490393542 1.6462193584034988 -0.6687240038010511
head 9.285163714192448 0.6314476617290086 0.3898551241259853
lclavicle 5.762880219776251e-16 -3.100395423662939e-16
lhumerus -20.536063657359286 -6.757679974777952 91.42526829669879
lradius 20.813920817889155
lwrist 8.650958394018165
lhand -26.033311395511 -5.383949976982686
lfingers 7.125019999999998
lthumb 0.3426352244884231 24.614218560597333
rclavicle 5.756944162905383e-16 -3.11493274556904e-16
rhumerus -21.995863063808653 -17.711205985692406 -82.45788702530906
rradius 21.819086048003822
rwrist 35.116327875016076
rhand -18.736230754205206 -25.553513109003358
rfingers 7.125019999999998
rthumb 7.365380811348134 -55.518631747539274
46
root 0.5046097301977659 17.62842949376498 -15.631698764582294 10.054828156166376 -1.4929236246492317 -1.9284145983610073
lfemur -21.8315914260441 9.31547594124812 -18.702731167595786
ltibia 22.98272864471679
lfoot -11.428039414414608 1.1718538484815588
ltoes -9.706030108081361
rfemur -24.983806433732642 -3.071699779471604 20.73977918182164
rtibia 28.25786203777653
rfoot -15.535379957613644 -1.4269469689348622
rtoes 6.054346662545148
lowerback 7.776440455867814 -0.049494498454704314 0.7618153955142357
upperback 4.961510335986942 -0.0940863636443521 1.648773355594336
thorax 2.3094929226721876 -0.06937325741229278 1.4290032863743714
lowerneck -16.112567723313294 0.8310640598513902 -1.8795104283693007
upperneck 20.34311689452589 1.6933088502648412 -0.7917495998124959
head 9.029814301578117 0.6534010002123054 0.35308828525673536
lclavicle 5.762781749279222e-16 -3.100533693995456e-16
lhumerus -21.016179414308823 -6.3747871420936715 91.18879670642924
lradius 20.829058522419714
lwrist 8.950075967486693
lhand -26.02106712702711 -5.2971330076916505
lfingers 7.125019999999998
lthumb 0.33802248128363116 24.66712873395767
rclavicle 5.756465009938135e-16 -3.115659008151651e-16
rhumerus -22.330858002657372 -18.060925184912676 -82.18882241759864
rradius 21.600237500277736
rwrist 35.785914558930344
rhand -18.673693108371012 -25.443622113326533
rfingers 7.125019999999998
rthumb 7.406088748935033 -55.40858202439258
47
root 0.49906861361171806 17.534929132553046 -15.873688369048677 11.504328831230128 -1.4715997628171333 -2.10988152819713
lfemur -24.36867355402561 9.372010314115018 -18.654685405377432
ltibia 24.830530956240914
lfoot -11.821964717155193 1.2001999945182256
ltoes -10.326945257801116
rfemur -28.06195331691194 -3.037293534451229 21.038700250803718
rtibia 30.293658186746818
rfoot -16.048996062421953 -1.4159084477081048
rtoes 5.643439358310363
lowerback 8.673307615627003 -0.05215063805617701 0.7974852020218356
upperback 4.930839925811237 -0.0904853397168623 1.6851626376488458
thorax 2.0169329596806946 -0.06616134803817605 1.4382132531878808
lowerneck -16.258106089483217 0.8529169185718908 -1.8637950517361064
upperneck 19.452377419651366 1.7294672168001826 -0.916415387622707
head 8.766371100641939 0.6698827662176746 0.3128069017274613
lclavicle 5.763263904880179e-16 -3.0997348887108394e-16
lhumerus -21.469537410484104 -5.794285207493069 90.8966517019411
lradius 20.77947143241723
lwrist 9.144737685389384
lhand -25.98540578146567 -5.196268473852839
lfingers 7.125019999999998
lthumb 0.36544231339478006 24.735328847032903
rclavicle 5.756496505867837e-16 -3.115608885208759e-16
rhumerus -22.602765033524868 -18.35349035779977 -81.89326178482112
rradius 21.390355665571008
rwrist 36.55647684753809
rhand -18.632762775791576 -25.350132067242534
rfingers 7.125019999999998
rthumb 7.432030439279515 -55.30936585041896
